#define xbm/GLYPHS/book_width 147
#define xbm/GLYPHS/book_height 136
static char xbm/GLYPHS/book_bits[] = {
 0x00,0x00,0x00,0x00,0x00,0x00,0x00,0x50,0x05,0x00,0x00,0x00,0x00,0x00,0x00,
 0x00,0x00,0x00,0xf8,0x00,0x00,0x00,0x00,0x00,0x00,0x00,0x54,0x15,0x00,0x00,
 0x00,0x00,0x00,0x00,0x00,0x00,0x00,0xf8,0x00,0x00,0x00,0x00,0x00,0x00,0x60,
 0xbf,0xfa,0x00,0x00,0x00,0x00,0x00,0x00,0x00,0x00,0x00,0xf8,0x00,0x00,0x00,
 0x00,0x00,0xc0,0xbf,0x00,0x00,0x03,0x00,0x00,0x00,0x00,0x00,0x00,0x00,0x00,
 0xf8,0x00,0x00,0x00,0x00,0x00,0x60,0x04,0x00,0x00,0x1e,0x00,0x00,0x00,0x00,
 0x00,0x00,0x00,0x00,0xf8,0x00,0x00,0x00,0x00,0x00,0x38,0x00,0x00,0x00,0x30,
 0x00,0x00,0x00,0x00,0x00,0x00,0x00,0x00,0xf8,0x00,0x00,0x00,0x00,0x00,0x0c,
 0x00,0x00,0x00,0xa0,0x00,0x00,0x20,0x04,0x00,0x00,0x00,0x00,0xf8,0x00,0x00,
 0x00,0x00,0x00,0x12,0x00,0x00,0x00,0xc0,0x00,0x00,0xfd,0xff,0x00,0x00,0x00,
 0x00,0xf8,0x00,0x00,0x00,0x00,0xf8,0x09,0x00,0x00,0x00,0x00,0x03,0xe8,0x00,
 0x80,0x5e,0x00,0x00,0x00,0xf8,0x00,0x00,0x00,0x00,0xf8,0x04,0x00,0x00,0x00,
 0x00,0x01,0x14,0x01,0x00,0xf0,0x04,0x18,0x00,0xf8,0x00,0x00,0x00,0x00,0x34,
 0x04,0x00,0x00,0x00,0x00,0x02,0x05,0x00,0x00,0x80,0x56,0x1d,0x00,0xf8,0x00,
 0x00,0x00,0x00,0x14,0x04,0x00,0x00,0x00,0x00,0x8c,0x01,0x00,0x00,0x00,0xee,
 0x37,0x00,0xf8,0x00,0x00,0x00,0x00,0x34,0x02,0x00,0x00,0x00,0x00,0x64,0x00,
 0x00,0x00,0x00,0x00,0x30,0x00,0xf8,0x00,0x00,0x00,0x00,0x0d,0x01,0x00,0x00,
 0x00,0x00,0x18,0x00,0x00,0x00,0x00,0x00,0xd4,0x00,0xf8,0x00,0x00,0x00,0x00,
 0x0e,0x02,0x00,0x00,0x00,0x00,0x10,0x00,0x00,0x00,0x00,0x00,0xd8,0x13,0xf9,
 0x00,0x00,0x00,0x00,0x03,0x01,0x00,0x00,0x00,0x00,0x08,0x00,0x00,0x00,0x00,
 0x00,0x6c,0xdf,0xf8,0x00,0x00,0x00,0x80,0x86,0x00,0x00,0x00,0x00,0x00,0x0c,
 0x00,0x00,0x00,0x00,0x00,0x4a,0xff,0xf9,0x00,0x00,0x00,0x00,0x03,0x01,0x00,
 0x00,0x00,0x00,0x08,0x00,0x00,0x00,0x00,0x00,0xb4,0xfe,0xf8,0x00,0x00,0x00,
 0x40,0x41,0x00,0x00,0x00,0x00,0x00,0x04,0x00,0x00,0x00,0x00,0x00,0xa9,0x0f,
 0xf9,0x00,0x00,0x00,0x80,0x83,0x00,0x00,0x00,0x00,0x00,0x04,0x00,0x00,0x00,
 0x00,0x00,0xaa,0x9e,0xf8,0x00,0x00,0x00,0xc0,0x40,0x00,0x00,0x00,0x00,0x00,
 0x02,0x00,0x00,0x00,0x00,0x00,0x55,0x4d,0xf8,0x00,0x00,0x00,0xa0,0x21,0x00,
 0x00,0x00,0x00,0x00,0x01,0x00,0x00,0x00,0x00,0x80,0x2a,0x55,0xf8,0x00,0x00,
 0x00,0xc0,0x20,0x00,0x00,0x00,0x00,0x00,0x02,0x00,0x00,0x00,0x00,0x00,0x55,
 0x26,0xf8,0x00,0x00,0x00,0x50,0x20,0x00,0x00,0x00,0x00,0x80,0x00,0x00,0x00,
 0x00,0x00,0x80,0xab,0x2a,0xf8,0x00,0x00,0x00,0xe0,0x10,0x00,0x00,0x00,0x00,
 0x00,0x01,0x00,0x00,0x00,0x00,0x80,0x54,0x13,0xf8,0x00,0x00,0x00,0x70,0x10,
 0x00,0x00,0x00,0x00,0x80,0x00,0x00,0x00,0x00,0x00,0x40,0x55,0x2b,0xf8,0x00,
 0x00,0x00,0x38,0x08,0x00,0x00,0x00,0x00,0x40,0x00,0x00,0x00,0x00,0x00,0xa0,
 0x95,0x0a,0xf8,0x00,0x00,0x00,0x14,0x04,0x00,0x00,0x00,0x00,0x80,0x00,0x00,
 0x00,0x00,0x00,0x40,0x8a,0x09,0xf8,0x00,0x00,0x00,0x18,0x08,0x00,0x00,0x00,
 0x00,0x20,0x00,0x00,0x00,0x00,0x00,0xd0,0xda,0x04,0xf8,0x00,0x00,0x00,0x1c,
 0x04,0x00,0x00,0x00,0x00,0x20,0x00,0x00,0x00,0x00,0x00,0xa0,0x92,0x02,0xf8,
 0x00,0x00,0x00,0x0e,0x02,0x00,0x00,0x00,0x00,0x10,0x00,0x00,0x00,0x00,0x00,
 0xb0,0x4a,0x06,0xf8,0x00,0x00,0x00,0x02,0x01,0x00,0x00,0x00,0x00,0x20,0x00,
 0x00,0x00,0x00,0x00,0xa8,0xf2,0x04,0xf8,0x00,0x00,0x00,0x0e,0x02,0x00,0x00,
 0x00,0x00,0x10,0x00,0x00,0x00,0x00,0x00,0x50,0x45,0x02,0xf8,0x00,0x00,0x00,
 0x06,0x01,0x00,0x00,0x00,0x00,0x10,0x00,0x00,0x00,0x00,0x00,0x54,0x2d,0x01,
 0xf8,0x00,0x00,0x80,0x07,0x01,0x00,0x00,0x00,0x00,0x08,0x00,0x00,0x00,0x00,
 0x00,0xa8,0x72,0x01,0xf8,0x00,0x00,0x00,0x83,0x00,0x00,0x00,0x00,0x00,0x04,
 0x00,0x00,0x00,0x00,0x00,0x54,0xb5,0x00,0xf8,0x00,0x00,0x80,0xc1,0x00,0x00,
 0x00,0x00,0x00,0x04,0x00,0x00,0x00,0x00,0x00,0x54,0x2d,0x01,0xf8,0x00,0x00,
 0xc0,0x83,0x00,0x00,0x00,0x00,0x00,0x04,0x00,0x00,0x00,0x00,0x00,0x54,0x99,
 0x00,0xf8,0x00,0x00,0xc0,0x20,0x00,0x00,0x00,0x00,0x00,0x02,0x00,0x00,0x00,
 0x00,0x00,0xaa,0x4a,0x00,0xf8,0x00,0x00,0xa0,0x41,0x00,0x00,0x00,0x00,0x00,
 0x02,0x00,0x00,0x00,0x00,0x00,0xaa,0x5a,0x01,0xf8,0x00,0x00,0x60,0x20,0x00,
 0x00,0x00,0x00,0x00,0x01,0x00,0x00,0x00,0x00,0x00,0x55,0x4d,0x00,0xf8,0x00,
 0x00,0x70,0x10,0x00,0x00,0x00,0x00,0x00,0x02,0x00,0x00,0x00,0x00,0x80,0xaa,
 0x46,0x00,0xf8,0x00,0x00,0x48,0x08,0x00,0x00,0x00,0x00,0x80,0x00,0x00,0x00,
 0x00,0x00,0x00,0x95,0x34,0x00,0xf8,0x00,0x00,0x30,0x10,0x00,0x00,0x00,0x00,
 0x80,0x00,0x00,0x00,0x00,0x00,0x40,0x95,0x23,0x00,0xf8,0x00,0x00,0x38,0x04,
 0x00,0x00,0x00,0x00,0x40,0x00,0x00,0x00,0x00,0x00,0x80,0x6a,0x0b,0x00,0xf8,
 0x00,0x00,0x0c,0x08,0x00,0x00,0x00,0x00,0x40,0x00,0x00,0x00,0x00,0x00,0x40,
 0x45,0x10,0x00,0xf8,0x00,0x00,0x38,0x04,0x00,0x00,0x00,0x00,0x20,0x00,0x00,
 0x00,0x00,0x00,0xa0,0x5a,0x0b,0x00,0xf8,0x00,0x00,0x16,0x02,0x00,0x00,0x00,
 0x00,0x40,0x00,0x00,0x00,0x00,0x00,0x40,0xa5,0x11,0x00,0xf8,0x00,0x00,0x0c,
 0x04,0x00,0x00,0x00,0x00,0x10,0x00,0x00,0x00,0x00,0x00,0x50,0xd5,0x04,0x00,
 0xf8,0x00,0x00,0x06,0x01,0x00,0x00,0x00,0x00,0x20,0x00,0x00,0x00,0x00,0x00,
 0xa0,0xaa,0x04,0x00,0xf8,0x00,0x00,0x03,0x02,0x00,0x00,0x00,0x00,0x10,0x00,
 0x00,0x00,0x00,0x00,0xb0,0x4a,0x05,0x00,0xf8,0x00,0x00,0x05,0x01,0x00,0x00,
 0x00,0x00,0x08,0x00,0x00,0x00,0x00,0x00,0xa0,0x5a,0x5a,0x41,0xf8,0x00,0x80,
 0x83,0x00,0x00,0x00,0x00,0x00,0x10,0x00,0x00,0x00,0x00,0x00,0x58,0xe5,0xfe,
 0x5f,0xf8,0x00,0x80,0x46,0x00,0x00,0x00,0x00,0x00,0x04,0x00,0x00,0x00,0x00,
 0x00,0xb0,0x34,0x5e,0xf8,0xf8,0x00,0xc0,0x42,0x00,0x00,0x00,0x00,0x00,0x08,
 0x00,0x00,0x00,0x00,0x00,0x48,0xab,0xae,0x6b,0xf8,0x00,0xc0,0x40,0x00,0x00,
 0x00,0x00,0x00,0x04,0x00,0x00,0x00,0x00,0x00,0xac,0x14,0xff,0x7e,0xf8,0x00,
 0xa0,0x21,0x00,0x00,0x00,0x00,0x00,0x02,0x00,0x00,0x00,0x00,0x00,0x58,0xb5,
 0xfe,0x1e,0xf8,0x00,0x60,0x40,0x00,0x00,0x00,0x00,0x00,0x01,0x00,0x00,0x00,
 0x00,0x00,0xa2,0x9b,0x9f,0x33,0xf8,0x00,0xe0,0x10,0x00,0x00,0x00,0x00,0x00,
 0x02,0x00,0x00,0x00,0x00,0x00,0x5e,0x90,0xf7,0x0f,0xf8,0x00,0x30,0x10,0x00,
 0x00,0x00,0x00,0x00,0x01,0x00,0x00,0x00,0x00,0x00,0xa9,0xed,0xf7,0x17,0xf8,
 0x00,0x58,0x08,0x00,0x00,0x00,0x00,0x80,0x00,0x00,0x00,0x00,0x00,0x00,0x55,
 0xca,0xff,0x0d,0xf8,0x00,0x28,0x08,0x00,0x00,0x00,0x00,0x40,0x00,0x00,0x00,
 0x00,0x00,0x80,0x5a,0xae,0xff,0x06,0xf8,0x00,0x18,0x04,0x00,0x00,0x00,0x00,
 0x80,0x00,0x00,0x00,0x00,0x00,0x00,0xd5,0xe6,0xff,0x02,0xf8,0x00,0x34,0x08,
 0x00,0xa0,0x5f,0x00,0x40,0x00,0x2a,0x00,0x00,0x00,0x80,0x8a,0xea,0x7f,0x07,
 0xf8,0x00,0x0c,0x02,0x00,0x7a,0xf5,0x03,0x40,0xe0,0xff,0x3f,0x00,0x00,0x80,
 0xaa,0xf6,0x77,0x01,0xf8,0x00,0x1e,0x04,0x00,0xfd,0xea,0x03,0x20,0xf0,0xff,
 0x3f,0x00,0x00,0x40,0x55,0xe3,0xaf,0x06,0xf8,0x00,0x0c,0x02,0x48,0x55,0xb5,
 0x17,0x40,0xf4,0xdd,0x76,0x01,0x00,0x80,0xaa,0xf6,0xb7,0x02,0xf8,0x00,0x0a,
 0x02,0xfc,0x85,0x8a,0x3c,0x20,0x9e,0x52,0xfa,0x0f,0x00,0xa0,0x2a,0xe9,0x5b,
 0x03,0xf8,0x00,0x07,0xff,0x57,0x6d,0x55,0xf3,0x90,0x53,0xad,0x85,0x7a,0x00,
 0x40,0xd5,0xf3,0xaf,0x01,0xf8,0x00,0x0e,0xb9,0xa9,0x92,0xaa,0xec,0xd0,0xac,
 0x52,0xba,0xda,0x0b,0xa0,0x54,0xf5,0x57,0x03,0xf8,0x00,0x83,0x4d,0x55,0x6d,
 0x55,0xab,0xfd,0x52,0xad,0xa5,0xaa,0x1e,0xa0,0xd5,0xfc,0xab,0x01,0xf8,0x80,
 0x43,0x20,0x55,0x55,0x55,0xe9,0x5b,0xad,0x52,0x55,0x95,0xea,0x5a,0xca,0xbc,
 0xaa,0x02,0xf8,0x00,0x61,0x16,0x55,0x49,0x95,0x6e,0x6e,0xd5,0x4a,0xba,0x6a,
 0xe5,0xbf,0x95,0xfd,0x52,0x01,0xf8,0xc0,0xb3,0x69,0xaa,0xb6,0xea,0x9a,0x5f,
 0x2d,0xba,0xab,0xaa,0x1a,0xa0,0xaa,0x3e,0xad,0x00,0xf8,0xc0,0x10,0x56,0x55,
 0x69,0xdd,0x6a,0xdb,0xf7,0x65,0xad,0x6a,0xa5,0x6b,0xd5,0xd4,0x52,0x01,0xf8,
 0xa0,0xd8,0x4a,0x55,0xfd,0xb7,0xd7,0xfe,0xad,0x5d,0xa9,0x8a,0x5a,0xaa,0x6a,
 0x5e,0xad,0x03,0xf8,0x60,0x8c,0x48,0xb5,0xdf,0xbf,0xf5,0xfd,0x7b,0xbb,0x56,
 0xb5,0xaa,0x8a,0x3a,0x57,0xaa,0x02,0xf8,0x70,0x02,0x50,0xf5,0xd7,0xdc,0xfe,
 0xff,0x7f,0x77,0xad,0x7a,0xa5,0xc5,0x95,0x43,0x55,0x01,0xf8,0x20,0x55,0x63,
 0xba,0x7c,0xff,0x3f,0xd2,0xfc,0x4d,0x8b,0xaa,0x5a,0x22,0x55,0xba,0x92,0x07,
 0xf8,0x70,0x05,0x94,0xdf,0xef,0x5f,0xd5,0xff,0xff,0xff,0xfb,0x4a,0x5b,0x95,
 0xb5,0x4a,0x6d,0x02,0xf8,0x78,0x49,0xdd,0xff,0x7b,0x51,0xf6,0xff,0x6d,0xff,
 0xff,0xf6,0xaa,0x1a,0x9b,0xb5,0xac,0x2e,0xf8,0x78,0xdb,0xee,0x6b,0x55,0xfa,
 0xee,0x7f,0x57,0xfb,0x7f,0xd7,0xaa,0x0a,0x56,0xa5,0x91,0x1f,0xf8,0xbc,0xff,
 0x77,0x22,0xa6,0xbf,0xff,0xff,0xaf,0x8a,0xbe,0x7b,0x5b,0xf5,0x4c,0x52,0x6a,
 0x1c,0xf8,0xe6,0x2d,0x05,0xdd,0xff,0xdf,0xef,0xff,0xff,0xb5,0xe4,0xfb,0xbf,
 0x8a,0x6b,0xad,0x55,0x1b,0xf8,0xb4,0x52,0xf9,0xff,0xfd,0xfd,0xaf,0x7f,0xff,
 0xff,0xab,0xae,0xfe,0xff,0x46,0x45,0xaa,0x0c,0xf8,0x59,0xff,0xff,0xfd,0xff,
 0xff,0x7f,0xbf,0xff,0xf7,0xbf,0x55,0xd3,0xfe,0xb3,0x92,0x55,0x07,0xf8,0xeb,
 0x55,0xff,0xf7,0xff,0xff,0xff,0xdb,0xff,0xff,0xff,0xef,0x8a,0xea,0x67,0x95,
 0xca,0x03,0xf8,0xbf,0x95,0xf2,0xff,0xef,0xff,0xdf,0xfe,0xff,0xff,0xff,0xff,
 0x7d,0x21,0x50,0x35,0xa9,0x01,0xf8,0x04,0xc0,0xff,0xff,0xf6,0xff,0x7f,0xfd,
 0xff,0xff,0xd9,0xfc,0xff,0xaf,0x5b,0x49,0xf6,0x00,0xf8,0x00,0xc0,0xbf,0xff,
 0xff,0xfb,0xff,0xff,0xff,0x7f,0x7f,0x6f,0x7f,0xff,0x56,0x36,0x39,0x00,0xf8,
 0x00,0x70,0xed,0xda,0x5b,0xbb,0xff,0xff,0xff,0x7f,0x7f,0x7f,0xdf,0xbf,0xd4,
 0x4a,0x5d,0x00,0xf8,0x00,0x5c,0xa1,0x24,0x55,0xdd,0xff,0xff,0xdf,0xff,0xd7,
 0xf7,0xef,0x5f,0xab,0x52,0x1d,0x00,0xf8,0x00,0xce,0x16,0x50,0xa4,0xa6,0x20,
 0x98,0xee,0xfd,0xbb,0xac,0xbb,0x6f,0x55,0x52,0x0d,0x00,0xf8,0x00,0xf7,0xff,
 0x3d,0x11,0x42,0xaf,0xeb,0x75,0xe6,0x7d,0x7f,0xdd,0x97,0xaa,0xaa,0x06,0x00,
 0xf8,0x00,0x2c,0xe5,0xfe,0xee,0x9a,0x28,0x04,0x8a,0x09,0xd7,0xd5,0xdd,0x69,
 0x55,0x55,0x03,0x00,0xfc,0x00,0x53,0x35,0x93,0xaa,0xda,0xdb,0xff,0x95,0x58,
 0x55,0xab,0xf7,0x95,0x8a,0xe8,0x01,0x80,0xf8,0x00,0x23,0x2e,0x3b,0x55,0xd5,
 0xae,0x55,0xd5,0xd6,0xd5,0x2e,0xd2,0x16,0x91,0x6a,0x01,0x30,0xf9,0x80,0x41,
 0x9c,0xd4,0x24,0x2a,0x4a,0xa9,0xda,0x6d,0xae,0x5f,0x48,0x69,0x51,0x76,0x00,
 0x08,0xf8,0x00,0x00,0x0a,0x2d,0x00,0xc0,0xd6,0x5d,0xb5,0xea,0xee,0xd8,0xff,
 0xd6,0x4c,0x19,0x00,0x05,0xfc,0x80,0x01,0x1a,0x0e,0x40,0x60,0x81,0x54,0xa4,
 0x2a,0x53,0x2f,0xfc,0x2a,0x52,0x0e,0xa0,0x00,0xf9,0x00,0x00,0x0e,0x0b,0x00,
 0x40,0x43,0x06,0x91,0x54,0x65,0xaf,0x8c,0x52,0x26,0x07,0x08,0x28,0xf8,0x80,
 0x01,0x8a,0x05,0x00,0x40,0xc1,0x02,0x02,0x51,0x6b,0x1f,0xa6,0xaa,0xc9,0x06,
 0x40,0x40,0xf8,0xc0,0x00,0x0d,0x07,0x00,0x60,0x81,0x02,0x00,0xa0,0xa1,0x03,
 0x55,0x35,0x55,0x03,0x80,0x00,0xf9,0x00,0x01,0x8a,0x03,0x00,0xb0,0xa0,0x03,
 0x00,0xd0,0xd0,0x01,0xac,0x8a,0xa8,0x01,0x00,0x00,0xf8,0xc0,0x80,0x0e,0x05,
 0x00,0xc0,0xc1,0x01,0x00,0xa0,0xe1,0x00,0x4a,0x55,0x62,0x00,0x02,0x00,0xf8,
 0x80,0x88,0xca,0x0b,0x00,0xa0,0x40,0x01,0x00,0x70,0xb0,0x01,0x46,0x55,0xb5,
 0x02,0x00,0x02,0xf8,0xc0,0x54,0xcd,0x12,0x00,0xb8,0x60,0x03,0x00,0xd0,0xe0,
 0x00,0x56,0x55,0x1d,0x01,0x00,0x00,0xf8,0x80,0x95,0xee,0xc6,0xff,0xab,0xb3,
 0x01,0x00,0xb8,0xf0,0x01,0xb2,0x54,0x8d,0x84,0x01,0x00,0xf8,0x00,0xa5,0x8f,
 0x0a,0x00,0xaa,0xa8,0xf8,0x6f,0x63,0xf8,0x00,0x4a,0x95,0x46,0x60,0x3a,0x00,
 0xf8,0xc0,0xad,0xf6,0xd7,0xff,0xda,0x6a,0x07,0x29,0xba,0xfa,0x05,0xab,0xaa,
 0x23,0x00,0x02,0x00,0xf8,0x80,0x56,0xcd,0xba,0x80,0xaa,0xf5,0x5b,0x84,0xec,
 0x5a,0x40,0x56,0xd5,0x08,0x92,0x00,0x00,0xf8,0x00,0xb7,0xdf,0x57,0x57,0xf5,
 0x55,0x49,0x55,0xdd,0xfa,0x22,0x53,0xd5,0x4a,0x2c,0x01,0x00,0xf8,0x80,0x7b,
 0xeb,0x6b,0xb5,0xfd,0xed,0xab,0xba,0x71,0xfd,0x5a,0xab,0x6a,0x4a,0x11,0x00,
 0x00,0xf8,0x00,0xed,0xdd,0x76,0xef,0x9f,0xfe,0x57,0x45,0x5d,0x65,0xa5,0xaa,
 0x35,0x08,0x46,0x1a,0x00,0xf8,0x00,0xb7,0xdf,0xdb,0x7d,0xf5,0xfb,0xbd,0xbb,
 0xf6,0xfa,0x5a,0x53,0x9a,0xa0,0x50,0x00,0x00,0xf8,0x00,0xde,0x7e,0x6f,0xd7,
 0xff,0xfb,0xef,0x76,0xf7,0xdf,0x57,0x55,0xad,0x15,0x05,0x00,0x00,0xf8,0x00,
 0xbe,0xdf,0xff,0xbd,0xfd,0xff,0xaf,0xdb,0x7a,0xfb,0xb7,0x56,0xaf,0x90,0x04,
 0x00,0x00,0xf8,0x00,0xf4,0xee,0x7f,0x7b,0xfb,0xff,0x77,0xdd,0xfd,0xfe,0xda,
 0x56,0x53,0xa0,0x00,0x00,0x00,0xf8,0x00,0xfc,0xff,0x5f,0xd7,0xf7,0xef,0xfb,
 0x36,0xfd,0xe7,0xef,0xaa,0x01,0x0f,0xc0,0x00,0x00,0xf8,0x00,0x40,0xfa,0xff,
 0x7d,0xfb,0xff,0x5f,0xdf,0xff,0xf5,0xed,0xee,0x54,0x90,0x20,0x00,0x00,0xf8,
 0x00,0x20,0x08,0x19,0x81,0xac,0xff,0xdf,0xf7,0xed,0xff,0x77,0xbf,0x82,0x01,
 0x24,0x00,0x00,0xf8,0x00,0x00,0x21,0x08,0x80,0x04,0x55,0x6f,0x4b,0xeb,0xf7,
 0xbf,0x5f,0x92,0x88,0x00,0x00,0x00,0xf8,0x00,0x80,0x40,0x04,0x20,0x11,0x02,
 0x12,0x55,0xf6,0xfb,0xd7,0x1e,0x51,0x12,0x00,0x00,0x00,0xf8,0x00,0x00,0x00,
 0x21,0x2d,0x22,0x10,0xa0,0x08,0x88,0x01,0xeb,0x6f,0x09,0x01,0x06,0x00,0x00,
 0xf8,0x00,0x00,0x08,0x00,0x80,0x40,0x49,0x05,0xa2,0x2a,0x54,0x01,0x80,0x4a,
 0x09,0x00,0x00,0x00,0xf8,0x00,0x00,0x80,0x08,0x34,0x95,0x88,0x80,0x94,0x40,
 0x28,0x4a,0x52,0x01,0x00,0x00,0x00,0x00,0xf8,0x00,0x00,0x20,0x04,0x54,0x80,
 0x22,0x55,0xaa,0x44,0x40,0x14,0x11,0x00,0x00,0x00,0x00,0x00,0xf8,0x00,0x00,
 0x10,0x02,0x04,0x48,0x12,0x32,0x15,0x2a,0x86,0x85,0x50,0x00,0x00,0x00,0x00,
 0x00,0xf8,0x00,0x00,0x40,0x00,0x82,0x14,0x42,0x82,0x24,0x88,0xb5,0xba,0x87,
 0x76,0x00,0x00,0x00,0x00,0xf8,0x00,0x00,0x80,0x52,0x11,0x40,0x48,0x29,0xa1,
 0x40,0x15,0x55,0x28,0x02,0x00,0x00,0x00,0x00,0xf8,0x00,0x00,0x00,0x00,0x10,
 0x02,0x00,0x00,0x09,0x40,0x48,0x00,0x29,0x08,0x00,0x00,0x00,0x00,0xf8,0x00,
 0x00,0x00,0x00,0x08,0x48,0x40,0x48,0x22,0x10,0x90,0x00,0x40,0x00,0x00,0x00,
 0x00,0x00,0xf8,0x00,0x00,0x00,0x00,0x80,0x10,0x10,0x94,0x4a,0x54,0x01,0x00,
 0x00,0x00,0x00,0x00,0x00,0x00,0xf8,0x00,0x00,0x00,0x00,0x00,0x00,0x17,0x00,
 0x0a,0xa2,0x0c,0x00,0x18,0x00,0x00,0x00,0x00,0x00,0xf8,0x00,0x00,0x00,0x00,
 0x00,0x00,0x00,0x80,0x2a,0x0d,0x00,0x00,0x00,0x00,0x00,0x00,0x00,0x00,0xf8,
 0x00,0x00,0x00,0x00,0x00,0x00,0x00,0x49,0x00,0x00,0x00,0x42,0x00,0x00,0x00,
 0x00,0x00,0x00,0xf8};
